<svg width="1026" height="1026" fill="none" xmlns="http://www.w3.org/2000/svg">
  <path d="M213 526.5V445m0 81.5v81.5m0-81.5h81.5m-81.5 0h-81.5m81.5-81.5v-81.5m0 81.5h81.5m-81.5 0h-81.5m81.5-81.5v-81.5m0 81.5h81.5m-81.5 0h-81.5" stroke="currentColor" stroke-width="2" stroke-linecap="round"/>
  <path d="M376 526.5V445m0 81.5v81.5m0-81.5h81.5m-81.5 0h-81.5m81.5-81.5v-81.5m0 81.5h81.5m-81.5 0h-81.5m81.5-81.5v-81.5m0 81.5h81.5m-81.5 0h-81.5" stroke="currentColor" stroke-width="2" stroke-linecap="round"/>
  <path d="M539 526.5V445m0 81.5v81.5m0-81.5h81.5m-81.5 0h-81.5m81.5-81.5v-81.5m0 81.5h81.5m-81.5 0h-81.5m81.5-81.5v-81.5m0 81.5h81.5m-81.5 0h-81.5" stroke="currentColor" stroke-width="2" stroke-linecap="round"/>
  <path d="M702 526.5V445m0 81.5v81.5m0-81.5h81.5m-81.5 0h-81.5m81.5-81.5v-81.5m0 81.5h81.5m-81.5 0h-81.5m81.5-81.5v-81.5m0 81.5h81.5m-81.5 0h-81.5" stroke="currentColor" stroke-width="2" stroke-linecap="round"/>
  <path d="M865 526.5V445m0 81.5v81.5m0-81.5h81.5m-81.5 0h-81.5m81.5-81.5v-81.5m0 81.5h81.5m-81.5 0h-81.5m81.5-81.5v-81.5m0 81.5h81.5m-81.5 0h-81.5" stroke="currentColor" stroke-width="2" stroke-linecap="round"/>
  <rect x="213" y="445" width="733" height="163" rx="13" stroke="currentColor" stroke-width="2"/>
</svg> 